<svg width="22" height="29" viewBox="0 0 22 29" fill="none" xmlns="http://www.w3.org/2000/svg">
<g clip-path="url(#clip0_51_624)">
<path d="M5.56341 20.5379C5.06497 20.0451 5.32278 20.1867 4.12539 19.8639C3.58112 19.7223 3.09987 19.4391 2.67018 19.1105L0.0691361 25.4147C-0.182947 26.0264 0.286844 26.6891 0.951428 26.6607L3.9707 26.5475L6.04466 28.7168C6.50299 29.1926 7.30507 29.0453 7.55716 28.4336L10.5421 21.2063C9.9233 21.5461 9.23007 21.75 8.51966 21.75C7.40247 21.75 6.35403 21.3195 5.56341 20.5379ZM21.9316 25.4147L19.3306 19.1162C18.8952 19.4504 18.4197 19.7279 17.8754 19.8695C16.6665 20.1867 16.9301 20.0508 16.4374 20.5436C15.6467 21.3252 14.5983 21.7557 13.4811 21.7557C12.7707 21.7557 12.0775 21.5574 11.4587 21.2119L14.4379 28.4336C14.69 29.0453 15.4921 29.1926 15.9504 28.7168L18.0243 26.5475L21.0436 26.6607C21.7139 26.6891 22.1837 26.0264 21.9316 25.4147ZM15.0681 19.2578C15.9447 18.3799 16.0421 18.4535 17.291 18.1193C18.0874 17.9041 18.7118 17.2811 18.9238 16.4768C19.3535 14.8682 19.2389 15.0607 20.4134 13.8826C20.9978 13.2936 21.2212 12.4439 21.0092 11.6397C20.5796 10.0311 20.5796 10.2576 21.0092 8.64902C21.2212 7.85039 20.9978 6.99512 20.4134 6.40606C19.2447 5.22793 19.3535 5.42051 18.9238 3.81192C18.7118 3.01328 18.0874 2.38457 17.291 2.16934C15.6926 1.73887 15.8874 1.85215 14.7129 0.674024C14.1285 0.0849619 13.2806 -0.141601 12.4842 0.0736337C10.8915 0.509767 11.115 0.509767 9.5108 0.0792978C8.71445 -0.135937 7.86653 0.0906259 7.28216 0.679688C6.11341 1.85781 6.30247 1.74453 4.70976 2.175C3.91341 2.39024 3.28893 3.01328 3.07695 3.81758C2.64726 5.42617 2.76184 5.23359 1.58737 6.41172C1.00299 6.99512 0.779553 7.85039 0.991532 8.65469C1.42122 10.2633 1.42122 10.0367 0.991532 11.6453C0.779553 12.4439 1.00299 13.2992 1.58737 13.8883C2.75612 15.0664 2.64726 14.8738 3.07695 16.4824C3.28893 17.2811 3.91341 17.9098 4.70976 18.125C5.99309 18.4705 6.09049 18.4139 6.93268 19.2635C7.68893 20.0281 8.86914 20.1641 9.78007 19.592C10.5249 19.1275 11.4759 19.1275 12.215 19.592C13.1316 20.1584 14.3118 20.0225 15.0681 19.2578ZM5.59778 9.96875C5.59778 6.9668 8.01549 4.53125 11.0004 4.53125C13.9853 4.53125 16.403 6.9668 16.403 9.96875C16.403 12.9707 13.9853 15.4063 11.0004 15.4063C8.01549 15.4063 5.59778 12.9707 5.59778 9.96875Z" fill="#0038FF"/>
</g>
<defs>
<clipPath id="clip0_51_624">
<rect width="22" height="29" fill="white"/>
</clipPath>
</defs>
</svg>
