<svg width="36" height="36" viewBox="0 0 36 36" fill="none" xmlns="http://www.w3.org/2000/svg">
<path d="M29.802 3.9375H6.19805C4.95 3.9375 3.9375 4.95 3.9375 6.19805V29.802C3.9375 31.05 4.95 32.0625 6.19805 32.0625H29.802C31.05 32.0625 32.0625 31.05 32.0625 29.802V6.19805C32.0625 4.95 31.05 3.9375 29.802 3.9375ZM29.802 29.8125C14.059 29.809 6.1875 29.8055 6.1875 29.802C6.19102 14.059 6.19453 6.1875 6.19805 6.1875C21.941 6.19102 29.8125 6.19453 29.8125 6.19805C29.809 21.941 29.8055 29.8125 29.802 29.8125ZM8.10703 14.4809H12.2801V27.9035H8.10703V14.4809ZM10.1953 12.6457C11.5277 12.6457 12.6141 11.5629 12.6141 10.227C12.6141 9.90932 12.5515 9.59479 12.4299 9.30134C12.3084 9.00788 12.1302 8.74124 11.9056 8.51664C11.681 8.29204 11.4144 8.11387 11.1209 7.99232C10.8275 7.87077 10.5129 7.8082 10.1953 7.8082C9.87768 7.8082 9.56315 7.87077 9.2697 7.99232C8.97624 8.11387 8.7096 8.29204 8.485 8.51664C8.2604 8.74124 8.08223 9.00788 7.96068 9.30134C7.83913 9.59479 7.77656 9.90932 7.77656 10.227C7.77305 11.5629 8.85586 12.6457 10.1953 12.6457ZM19.0652 21.2625C19.0652 19.5117 19.3992 17.8172 21.5684 17.8172C23.7059 17.8172 23.7375 19.8176 23.7375 21.375V27.9035H27.907V20.5418C27.907 16.9277 27.1266 14.1469 22.9043 14.1469C20.8758 14.1469 19.5152 15.2613 18.9563 16.316H18.9V14.4809H14.8957V27.9035H19.0652V21.2625Z" fill="black"/>
</svg>
