<svg width="31" height="32" viewBox="0 0 31 32" fill="none" xmlns="http://www.w3.org/2000/svg">
<mask id="mask0_51_785" style="mask-type:alpha" maskUnits="userSpaceOnUse" x="0" y="0" width="31" height="32">
<rect y="0.5" width="31" height="31" fill="#D9D9D9"/>
</mask>
<g mask="url(#mask0_51_785)">
<path d="M5.16634 26.3334C4.45592 26.3334 3.84776 26.0805 3.34186 25.5746C2.83596 25.0687 2.58301 24.4605 2.58301 23.7501V8.25008C2.58301 7.53966 2.83596 6.93151 3.34186 6.4256C3.84776 5.9197 4.45592 5.66675 5.16634 5.66675H25.833C26.5434 5.66675 27.1516 5.9197 27.6575 6.4256C28.1634 6.93151 28.4163 7.53966 28.4163 8.25008V23.7501C28.4163 24.4605 28.1634 25.0687 27.6575 25.5746C27.1516 26.0805 26.5434 26.3334 25.833 26.3334H5.16634ZM15.4997 17.2917L5.16634 10.8334V23.7501H25.833V10.8334L15.4997 17.2917ZM15.4997 14.7084L25.833 8.25008H5.16634L15.4997 14.7084ZM5.16634 10.8334V8.25008V23.7501V10.8334Z" fill="#1C1B1F"/>
</g>
</svg>
